#!OML:ASF H:\Pregnant\Project 1\Capture day 1\Session 1\femalepreg.ASF
:FULLY-SPECIFIED
:DEGREES
765
root 5.74974 15.6018 -10.7981 -152.654 192.062 -177.908
lowerback -18.4183 1.63054 -4.21897
upperback -2.08526 3.23531 -2.75133
thorax 7.99661 1.46664 0.229905
lowerneck -19.4481 3.04641 4.57787
upperneck 22.5865 4.82577 -7.5027
head 10.8033 1.67586 -2.75222
rclavicle -3.69739e-014 -2.38542e-014
rhumerus -25.2755 19.2695 -93.2947
rradius 38.3985
rwrist -8.60381
rhand -19.3244 -16.4514
rfingers 7.12502
rthumb 6.992 -46.316
lclavicle -3.69739e-014 -2.38542e-014
lhumerus -36.8881 -22.2417 90.0237
lradius 29.1785
lwrist 35.4084
lhand -30.024 -1.43857
lfingers 7.12502
lthumb -3.34063 28.515
rfemur -68.3063 20.3569 2.65472
rtibia 32.2654
rfoot -5.42705 -9.42927
rtoes -23.54
lfemur -5.64397 -10.7832 -29.7409
ltibia 0
lfoot -8.35423 -2.53922
ltoes -12.614
766
root 5.73193 15.5942 -10.6622 -152.75 191.807 -177.757
lowerback -18.6014 1.51803 -3.99492
upperback -2.15052 3.03179 -2.5549
thorax 8.0315 1.37191 0.270183
lowerneck -19.4506 3.12073 4.61429
upperneck 22.8816 4.99618 -7.71137
head 10.9329 1.7266 -2.81415
rclavicle 8.34896e-015 3.97569e-014
rhumerus -25.8175 18.651 -93.0517
rradius 36.7679
rwrist -8.86972
rhand -19.5376 -17.043
rfingers 7.12502
rthumb 6.78623 -46.9142
lclavicle 8.34896e-015 3.97569e-014
lhumerus -36.6174 -22.1725 90.0927
lradius 30.0777
lwrist 36.2597
lhand -30.4886 -1.7879
lfingers 7.12502
lthumb -3.7893 28.1582
rfemur -67.9545 20.0047 3.16528
rtibia 32.7009
rfoot -3.13365 -8.07583
rtoes -24.4095
lfemur -5.07254 -10.9191 -29.9037
ltibia 1.59028e-014
lfoot -8.11215 -2.81202
ltoes -11.9457
767
root 5.71532 15.59 -10.5252 -152.861 191.553 -177.659
lowerback -18.7488 1.42643 -3.68961
upperback -2.21095 2.83643 -2.35646
thorax 8.05546 1.28402 0.266953
lowerneck -19.4828 3.20646 4.67143
upperneck 23.1951 5.17754 -7.91797
head 11.0777 1.78301 -2.87778
rclavicle 3.57812e-015 1.59028e-015
rhumerus -26.3145 17.9474 -92.757
rradius 35.089
rwrist -9.09862
rhand -19.6775 -17.7263
rfingers 7.12502
rthumb 6.65111 -47.6018
lclavicle 3.57812e-015 1.59028e-015
lhumerus -36.3246 -21.9903 90.1003
lradius 31.0011
lwrist 37.1213
lhand -30.8721 -2.10423
lfingers 7.12502
lthumb -4.15968 27.8349
rfemur -67.6061 19.574 3.90716
rtibia 33.2138
rfoot -0.860942 -6.64154
rtoes -24.8079
lfemur -4.46489 -11.0247 -30.0231
ltibia -1.27222e-014
lfoot -7.81038 -3.06636
ltoes -11.8432
768
root 5.70022 15.5874 -10.3879 -152.993 191.309 -177.635
lowerback -18.8513 1.35955 -3.29036
upperback -2.25953 2.65057 -2.14392
thorax 8.07046 1.20363 0.226333
lowerneck -19.5355 3.30342 4.74163
upperneck 23.5203 5.37396 -8.12978
head 11.2342 1.84561 -2.94377
rclavicle 5.39203e-014 -3.79679e-014
rhumerus -26.7638 17.1687 -92.3915
rradius 33.3716
rwrist -9.25292
rhand -19.8556 -18.4156
rfingers 7.12502
rthumb 6.47927 -48.2965
lclavicle 5.39203e-014 -3.79679e-014
lhumerus -36.0066 -21.685 90.063
lradius 31.9311
lwrist 37.9853
lhand -31.1527 -2.33312
lfingers 7.12502
lthumb -4.43064 27.6005
rfemur -67.2175 19.1198 4.85816
rtibia 33.7953
rfoot 0.979847 -5.13575
rtoes -24.507
lfemur -3.81142 -11.0801 -30.0855
ltibia -2.22639e-014
lfoot -7.44242 -3.3195
ltoes -12.2395
769
root 5.68679 15.5852 -10.2515 -153.156 191.077 -177.701
lowerback -18.8773 1.32522 -2.77428
upperback -2.30127 2.47926 -1.92431
thorax 8.05441 1.13438 0.128272
lowerneck -19.6074 3.40894 4.83858
upperneck 23.8568 5.57643 -8.34346
head 11.4018 1.912 -3.01468
rclavicle -8.64713e-015 -7.7526e-015
rhumerus -27.1669 16.2713 -91.9524
rradius 31.6179
rwrist -9.25317
rhand -20.0546 -19.0705
rfingers 7.12502
rthumb 6.28714 -48.9572
lclavicle -8.64713e-015 -7.7526e-015
lhumerus -35.6767 -21.2804 89.9824
lradius 32.8601
lwrist 38.844
lhand -31.3798 -2.58871
lfingers 7.12502
lthumb -4.6499 27.3403
rfemur -66.7632 18.7507 5.90384
rtibia 34.4295
rfoot 2.12028 -3.77601
rtoes -23.3669
lfemur -3.10464 -11.0756 -30.0764
ltibia 1.59028e-014
lfoot -6.99545 -3.58796
ltoes -13.0738
